<?xml version="1.0" encoding="utf-8"?>
<!-- Generator: Adobe Illustrator 21.0.0, SVG Export Plug-In . SVG Version: 6.00 Build 0)  -->
<svg version="1.1"
	 id="logo_1_" xmlns:cc="http://creativecommons.org/ns#" xmlns:dc="http://purl.org/dc/elements/1.1/" xmlns:rdf="http://www.w3.org/1999/02/22-rdf-syntax-ns#" xmlns:svg="http://www.w3.org/2000/svg"
	 xmlns="http://www.w3.org/2000/svg" xmlns:xlink="http://www.w3.org/1999/xlink" x="0px" y="0px" viewBox="0 0 400 300"
	 style="enable-background:new 0 0 400 300;" xml:space="preserve">
<style type="text/css">
	.st0{fill:#049FD9;}
</style>
<path id="logo" transform="translate(-446.85715,-442.59426)" class="st0" d="M836.9,554.6c0-4.6-3.7-8.2-8.2-8.2
	c-4.6,0-8.3,3.7-8.3,8.2v17.3c0,4.6,3.7,8.3,8.3,8.3c4.5,0,8.2-3.7,8.2-8.3V554.6z M791.5,531.8c0-4.5-3.7-8.2-8.3-8.2
	c-4.6,0-8.2,3.7-8.2,8.2v40.1c0,4.6,3.7,8.3,8.2,8.3c4.7,0,8.3-3.7,8.3-8.3C791.5,571.9,791.5,531.8,791.5,531.8z M746,500.7
	c0-4.6-3.7-8.2-8.2-8.2c-4.6,0-8.2,3.7-8.2,8.2v87.7c0,4.6,3.7,8.3,8.2,8.3c4.6,0,8.2-3.7,8.2-8.3C746,588.4,746,500.7,746,500.7z
	 M700.6,531.8c0-4.5-3.7-8.2-8.2-8.2c-4.5,0-8.2,3.7-8.2,8.2v40.1c0,4.6,3.7,8.3,8.2,8.3c4.6,0,8.2-3.7,8.2-8.3
	C700.6,571.9,700.6,531.8,700.6,531.8z M655.1,554.6c0-4.6-3.7-8.2-8.2-8.2c-4.6,0-8.3,3.7-8.3,8.2v17.3c0,4.6,3.7,8.3,8.3,8.3
	c4.5,0,8.2-3.7,8.2-8.3C655.1,571.9,655.1,554.6,655.1,554.6z M609.7,531.8c0-4.5-3.7-8.2-8.3-8.2c-4.6,0-8.3,3.7-8.3,8.2v40.1
	c0,4.6,3.7,8.3,8.3,8.3c4.6,0,8.3-3.7,8.3-8.3C609.7,571.9,609.7,531.8,609.7,531.8z M564.3,500.7c0-4.6-3.7-8.2-8.3-8.2
	c-4.6,0-8.3,3.7-8.3,8.2v87.7c0,4.6,3.7,8.3,8.3,8.3c4.6,0,8.3-3.7,8.3-8.3C564.3,588.4,564.3,500.7,564.3,500.7z M518.8,531.8
	c0-4.5-3.7-8.2-8.3-8.2s-8.3,3.7-8.3,8.2v40.1c0,4.6,3.7,8.3,8.3,8.3s8.3-3.7,8.3-8.3V531.8z M473.4,554.6c0-4.6-3.7-8.2-8.3-8.2
	c-4.6,0-8.3,3.7-8.3,8.2v17.3c0,4.6,3.7,8.3,8.3,8.3c4.6,0,8.3-3.7,8.3-8.3L473.4,554.6L473.4,554.6z M644.2,626.4
	c-0.5-0.1-8.1-2.1-16.2-2.1c-15.4,0-24.6,8.3-24.6,20.6c0,10.9,7.7,16.4,17,19.3c1,0.3,2.5,0.8,3.6,1.1c4.1,1.3,7.4,3.2,7.4,6.6
	c0,3.7-3.8,6.2-12.1,6.2c-7.3,0-14.3-2.1-15.7-2.5v15.2c0.8,0.2,9.1,1.8,18,1.8c12.8,0,27.3-5.6,27.3-22.2c0-8-4.9-15.5-15.7-18.9
	l-4.6-1.5c-2.7-0.9-7.6-2.3-7.6-6.3c0-3.2,3.6-5.4,10.3-5.4c5.8,0,12.8,1.9,13,2V626.4L644.2,626.4z M785,658.5
	c0,9.6-7.4,17.4-17.2,17.4c-9.9,0-17.2-7.8-17.2-17.4c0-9.6,7.3-17.4,17.2-17.4C777.6,641.2,785,649,785,658.5 M767.8,624.4
	c-20.3,0-34.9,15.3-34.9,34.2c0,18.9,14.6,34.2,34.9,34.2c20.3,0,34.9-15.3,34.9-34.2C802.7,639.7,788.1,624.4,767.8,624.4
	 M541.4,626.7c-1.6-0.5-7.4-2.4-15.2-2.4c-20.3,0-35.2,14.5-35.2,34.2c0,21.3,16.4,34.2,35.2,34.2c7.4,0,13.1-1.8,15.2-2.4v-17.7
	c-0.7,0.4-6.2,3.5-14,3.5c-11.1,0-18.3-7.8-18.3-17.6c0-10.1,7.5-17.6,18.3-17.6c8,0,13.3,3.2,14,3.5V626.7z M715.3,626.7
	c-1.6-0.5-7.4-2.4-15.2-2.4c-20.3,0-35.2,14.5-35.2,34.2c0,21.3,16.5,34.2,35.2,34.2c7.4,0,13.1-1.8,15.2-2.4v-17.7
	c-0.7,0.4-6.2,3.5-14,3.5c-11.1,0-18.2-7.8-18.2-17.6c0-10.1,7.5-17.6,18.2-17.6c8,0,13.3,3.2,14,3.5V626.7z M581,691.6h-16.7v-66
	H581V691.6z"/>
</svg>
